HIERARCHY
ROOT Hips
{
	OFFSET 0.000000 0.000000 0.000000
	CHANNELS 6 Xposition Yposition Zposition Zrotation Yrotation Xrotation 
	JOINT LowerBack
	{
		OFFSET 0.000000 0.000000 0.000000
		CHANNELS 3 Zrotation Yrotation Xrotation
		JOINT Spine
		{
			OFFSET 0.028270 2.035590 -0.193380
			CHANNELS 3 Zrotation Yrotation Xrotation
			JOINT Spine1
			{
				OFFSET 0.056720 2.048850 -0.042750
				CHANNELS 3 Zrotation Yrotation Xrotation
				JOINT Neck
				{
					OFFSET 0.000000 0.000000 0.000000
					CHANNELS 3 Zrotation Yrotation Xrotation
					JOINT Neck1
					{
						OFFSET -0.054170 1.746240 0.172020
						CHANNELS 3 Zrotation Yrotation Xrotation
						JOINT Head
						{
							OFFSET 0.104070 1.761360 -0.123970
							CHANNELS 3 Zrotation Yrotation Xrotation
							End Site
							{
								OFFSET 0.000000 0.000000 0.000000
							}
						}
					}
				}
				JOINT LeftShoulder
				{
					OFFSET 0.000000 0.000000 0.000000
					CHANNELS 3 Zrotation Yrotation Xrotation
					JOINT LeftArm
					{
						OFFSET 3.362410 1.200890 -0.311210
						CHANNELS 3 Zrotation Yrotation Xrotation
						JOINT LeftForeArm
						{
							OFFSET 4.983000 -0.000000 -0.000000
							CHANNELS 3 Zrotation Yrotation Xrotation
							JOINT LeftHand
							{
								OFFSET 3.483560 -0.000000 -0.000000
								CHANNELS 3 Zrotation Yrotation Xrotation
								JOINT LeftFingerBase
								{
									OFFSET 0.000000 0.000000 0.000000
									CHANNELS 3 Zrotation Yrotation Xrotation
									JOINT LeftHandIndex1
									{
										OFFSET 0.715260 -0.000000 -0.000000
										CHANNELS 3 Zrotation Yrotation Xrotation
										End Site
										{
											OFFSET 0.000000 0.000000 0.000000
										}
									}
								}
								JOINT LThumb
								{
									OFFSET 0.000000 0.000000 0.000000
									CHANNELS 3 Zrotation Yrotation Xrotation
									End Site
									{
										OFFSET 0.000000 0.000000 0.000000
									}
								}
							}
						}
					}
				}
				JOINT RightShoulder
				{
					OFFSET 0.000000 0.000000 0.000000
					CHANNELS 3 Zrotation Yrotation Xrotation
					JOINT RightArm
					{
						OFFSET -3.136600 1.374050 -0.404650
						CHANNELS 3 Zrotation Yrotation Xrotation
						JOINT RightForeArm
						{
							OFFSET -5.241900 -0.000000 -0.000000
							CHANNELS 3 Zrotation Yrotation Xrotation
							JOINT RightHand
							{
								OFFSET -3.444170 -0.000000 -0.000000
								CHANNELS 3 Zrotation Yrotation Xrotation
								JOINT RightFingerBase
								{
									OFFSET 0.000000 0.000000 0.000000
									CHANNELS 3 Zrotation Yrotation Xrotation
									JOINT RightHandIndex1
									{
										OFFSET -0.622530 -0.000000 -0.000000
										CHANNELS 3 Zrotation Yrotation Xrotation
										End Site
										{
											OFFSET 0.000000 0.000000 0.000000
										}
									}
								}
								JOINT RThumb
								{
									OFFSET 0.000000 0.000000 0.000000
									CHANNELS 3 Zrotation Yrotation Xrotation
									End Site
									{
										OFFSET 0.000000 0.000000 0.000000
									}
								}
							}
						}
					}
				}
			}
		}
	}
}
}
MOTION
Frames: 9
Frame Time: 0.008333
-20.152475 16.186884 -0.242428 3.186932 87.297059 18.736128 -12.804471 2.018583 -6.208727 -3.604218 2.860605 -4.711397 -5.876645 2.680210 -1.059711 7.499635 -1.133528 -7.091584 -2.754254 -0.222416 0.062626 0.000000 0.000000 0.000000 -1.921141 14.489259 3.392727 -50.305250 29.584063 1.248269 -5.552692 -6.278421 -0.012915 1.197820 4.661952 0.055915 -0.166420 -0.066212 -0.000000 0.000000 0.000000 0.000000 0.000000 0.000000 0.000000 9.442172 7.454347 0.817319 64.053311 49.333886 38.504469 1.083560 70.585789 0.008776 0.466637 8.490127 0.036798 0.015350 -0.489667 -0.000000 0.000000 0.000000 0.000000 0.000000 0.000000 0.000000 
-19.988084 16.161812 -0.266217 7.167143 87.642529 22.362218 -12.918336 1.906436 -5.779329 -3.637652 2.756291 -4.654128 -6.006543 2.582355 -1.194293 7.652757 -0.986407 -7.042431 -2.858417 -0.230464 0.063598 0.000000 0.000000 0.000000 -2.346336 14.247566 3.438333 -50.228222 27.837584 0.686084 -5.502933 -5.198289 -0.010784 1.838842 4.276136 0.075241 -0.159673 -0.057475 -0.000000 0.000000 0.000000 0.000000 0.000000 0.000000 0.000000 9.915020 7.635671 0.753844 65.356228 47.483113 38.636060 1.125362 69.642510 0.008418 0.318675 8.443966 0.024623 0.021359 -0.484628 -0.000000 0.000000 0.000000 0.000000 0.000000 0.000000 0.000000 
-19.826637 16.133044 -0.290913 11.319818 87.953374 26.151102 -12.971078 1.806221 -5.339407 -3.659318 2.656793 -4.595283 -6.135903 2.489117 -1.331581 7.785429 -0.832527 -6.986553 -2.964552 -0.238727 0.066453 0.000000 0.000000 0.000000 -2.795870 13.990550 3.474241 -50.171885 26.026609 0.181167 -5.444512 -4.108860 -0.008839 2.517869 3.898980 0.091667 -0.151641 -0.048764 -0.000000 0.000000 0.000000 0.000000 0.000000 0.000000 0.000000 10.380122 7.805927 0.686516 66.607109 45.600616 38.676141 1.163712 68.564098 0.007510 0.103897 8.416502 0.007340 0.027310 -0.479397 -0.000000 0.000000 0.000000 0.000000 0.000000 0.000000 0.000000 
-19.668375 16.100319 -0.316087 15.498698 88.202483 29.965924 -12.978289 1.722138 -4.907380 -3.672446 2.568112 -4.537655 -6.262865 2.405942 -1.465752 7.904484 -0.677531 -6.926564 -3.071703 -0.247097 0.070624 0.000000 0.000000 0.000000 -3.255873 13.720518 3.500293 -50.150487 24.159444 -0.262471 -5.377493 -3.033013 -0.007135 3.235122 3.539466 0.105295 -0.142307 -0.040096 -0.000000 0.000000 0.000000 0.000000 0.000000 0.000000 0.000000 10.844548 7.961353 0.621240 67.795799 43.714757 38.632736 1.199142 67.345115 0.006152 -0.167230 8.417527 -0.014147 0.033079 -0.473983 -0.000000 0.000000 0.000000 0.000000 0.000000 0.000000 0.000000 
-19.513292 16.063626 -0.341684 19.353430 88.356879 33.466460 -12.957725 1.658916 -4.500342 -3.679763 2.497342 -4.484703 -6.383902 2.339112 -1.595096 8.008768 -0.513849 -6.862577 -3.177250 -0.255349 0.076426 0.000000 0.000000 0.000000 -3.722557 13.447831 3.516818 -50.170300 22.240712 -0.595024 -5.302574 -1.998819 -0.005717 3.986116 3.203067 0.116025 -0.131751 -0.031601 -0.000000 0.000000 0.000000 0.000000 0.000000 0.000000 0.000000 11.293887 8.111915 0.558009 68.932732 41.827236 38.495270 1.231370 65.982786 0.004519 -0.467386 8.443557 -0.038043 0.038199 -0.468172 -0.000000 0.000000 0.000000 0.000000 0.000000 0.000000 0.000000 
-19.361442 16.023171 -0.367152 22.919012 88.428120 36.695479 -12.931251 1.609325 -4.124469 -3.685113 2.439691 -4.436537 -6.498377 2.283679 -1.715785 8.108699 -0.350766 -6.795702 -3.281037 -0.263452 0.083469 0.000000 0.000000 0.000000 -4.181443 13.156959 3.525194 -50.243871 20.290179 -0.828092 -5.221645 -1.035946 -0.004617 4.763775 2.891576 0.124056 -0.120147 -0.023285 -0.000000 0.000000 0.000000 0.000000 0.000000 0.000000 0.000000 11.743153 8.245863 0.503122 70.011825 39.961118 38.267935 1.261463 64.469886 0.002797 -0.770982 8.498256 -0.062347 0.042372 -0.461795 -0.000000 0.000000 0.000000 0.000000 0.000000 0.000000 0.000000 
-19.212927 15.979417 -0.392517 26.079949 88.424956 39.542174 -12.906067 1.568679 -3.781298 -3.688938 2.391622 -4.392606 -6.604164 2.235970 -1.825521 8.204502 -0.184557 -6.727153 -3.381378 -0.271226 0.091507 0.000000 0.000000 0.000000 -4.628294 12.854433 3.527182 -50.376719 18.301269 -0.918114 -5.136111 -0.165631 -0.003842 5.557155 2.603525 0.129389 -0.107736 -0.015219 -0.000000 0.000000 0.000000 0.000000 0.000000 0.000000 0.000000 12.183470 8.364707 0.455456 71.044099 38.116608 37.933894 1.289200 62.801532 0.001170 -1.046316 8.574758 -0.084862 0.045112 -0.454514 -0.000000 0.000000 0.000000 0.000000 0.000000 0.000000 0.000000 
-19.067940 15.933078 -0.417402 28.994381 88.372517 42.168082 -12.887089 1.523686 -3.465708 -3.692232 2.339876 -4.353298 -6.704291 2.182500 -1.930485 8.309308 -0.023269 -6.658276 -3.477320 -0.278612 0.100341 0.000000 0.000000 0.000000 -5.066235 12.503471 3.532588 -50.573727 16.575879 -0.838577 -5.050520 -0.012837 -0.003770 6.352694 2.585152 0.145923 -0.094895 -0.007790 -0.000000 0.000000 0.000000 0.000000 0.000000 0.000000 0.000000 12.632672 8.469327 0.424243 72.032350 36.305799 37.488300 1.318057 60.970175 -0.000151 -1.268331 8.669942 -0.103487 0.046495 -0.446146 -0.000000 0.000000 0.000000 0.000000 0.000000 0.000000 0.000000 
-18.926207 15.885049 -0.441720 31.757476 88.291635 44.668509 -12.871031 1.469965 -3.173133 -3.694307 2.279922 -4.317409 -6.799073 2.118933 -2.030759 8.425027 0.131572 -6.588437 -3.569499 -0.285652 0.110059 0.000000 0.000000 0.000000 -5.488181 12.093735 3.541991 -50.834351 15.101849 -0.594346 -4.966191 -0.548067 -0.004166 7.134277 2.803077 0.176659 -0.081929 -0.000976 -0.000000 0.000000 0.000000 0.000000 0.000000 0.000000 0.000000 13.093767 8.554346 0.410791 72.980723 34.530042 36.906859 1.349030 58.970792 -0.001051 -1.416013 8.778307 -0.116621 0.046341 -0.436491 -0.000000 0.000000 0.000000 0.000000 0.000000 0.000000 0.000000 
